<svg version="1.0" width="600" height="350"  viewBox="0 0 600 350" xmlns="http://www.w3.org/2000/svg">
 <!-- Created with Method Draw - http://github.com/duopixel/Method-Draw/ -->
 <defs>
   <style type="text/css">
     .path{
        stroke-width:5;
        stroke:#ffffff;
        fill:none;
        fill-opacity:0;
        stroke-linecap:round;
        stroke-linejoin:round;
        stroke-miterlimit="10"
     }

     #S{
      stroke-dasharray:500;
      stroke-dashoffset:0;
      -webit-animation: write-S 3s linear;
      animation: write-S 3s linear;
     }
     #heng{
      stroke-dasharray:2000;
      stroke-dashoffset:0;
      -webit-animation: write-heng 3s linear;
      animation: write-heng 3s linear;
     }
     #bo{
      stroke-dasharray:1000;
      stroke-dashoffset:0;
      -webit-animation: write-bo 3s  linear;
      animation: write-bo 3s  linear;
     }
     #lou{
      stroke-dasharray:1000;
      stroke-dashoffset:0;
      -webit-animation: write-lou 3s  linear;
      animation: write-lou 3s  linear;
     }


     @-webkit-keyframes write-S{
      0%{
        stroke-dashoffset:500;
      }
      25%{
        stroke-dashoffset:0;
      }
     }
     @-webkit-keyframes write-heng{
      0%,20%{
       opacity:0;
        stroke-dashoffset:2000;
      }
      22%{
        opacity:1;
      }
      50%{
        stroke-dashoffset:0;
      }
     }
     @-webkit-keyframes write-bo{
      0%,40%{
        opacity:0;
        stroke-dashoffset:1000;
      }

      42%{
        opacity:1;
      }
      80%{
        stroke-dashoffset:0;
      }
     }
     @-webkit-keyframes write-lou{
      0%, 60%{
        opacity:0;
        stroke-dashoffset:1000;
      }
      62%{
        opacity:1;
      }
      100%{
        stroke-dashoffset:0;
      }
     }


   </style>
 </defs>

  <title>Layer 1</title>
  <path class="path" id="S"  d="m77.665825,106.00042c-0.666672,
    0 -1.949905,0.189812 -6.666695,1.333336c-3.303658,0.800926 -9.479637,
    3.110016 -14.666725,6.666695c-2.749149,1.885033 -8.50256,4.056816 -12.666718,8.000031c-3.099586,
    2.935127 -4.981556,4.98156 -8.000031,8.000038c-3.018471,3.018478 -4.859079,7.245544 -6.000023,
    10.000031c-0.806772,1.947723 -1.974072,6.718353 -1.33334,10.666718c0.67539,
    4.161942 2.941051,8.93605 5.333355,12.000046c1.740654,2.229385 4.592392,4.796082 8.000031,
    6.666687c3.920322,2.152039 7.305344,3.420563 11.333382,4.666687c4.63662,
    1.434402 8.735565,1.145706 14.000053,2.000015c4.161942,0.675385 5.921036,1.460175 8.000031,
    2.666672c1.289345,0.74823 2.230804,1.80365 3.333351,3.333344c1.743286,2.418671 1.333336,6.000031 0.666664,10.000046c-1.333336,
    8.000031 -2.201874,12.281464 -8.000031,21.33342c-3.093277,4.829163 -7.773788,
    10.923141 -13.333385,17.333405c-4.368023,5.036377 -6.666695,10.000031 -14.666725,18.666733l-3.333347,
    6.000031l-2.666676,3.333344"/>
  <path  class="path" id="heng"
    d="m115.665977,109.333771c-0.666672,2.000008 -1.053139,5.437935 -2.666679,9.333366c-2.852364,6.886223 -6.232872,
    12.598457 -8.666702,21.333412c-2.213348,7.943649 -2.921364,14.127731 -6.000023,23.333435c-2.945061,8.806229 -6.379662,17.2332 -8.666702,
    26.666763c-2.402786,9.91098 -5.899452,17.36499 -8.666702,26.000107c-2.573486,8.030487 -4.329651,13.159897 -6.666687,
    18.000076c-1.56102,3.232986 -3.679543,5.705475 -5.333359,8.000031c-0.871643,1.209335 -1.238945,2.082596 -0.666672,1.333344c3.26252,-4.271423 5.323944,-9.645386 8.666702,
    -16.000076c3.357124,-6.382004 8.603317,-13.387054 12.000046,-17.333389c5.236969,-6.084335 9.333382,-10.666718 12.000053,-13.333389c2.666679,-2.666687 6.416908,
    -6.275772 9.333366,-8.666702c1.858894,-1.523926 3.882523,-2.324188 5.333359,-2.666672c0.648834,-0.153168 1.384079,-0.255127 2.000008,
    0c0.871033,0.360794 0,3.333344 -0.666672,6.666687c-1.333336,6.666687 -2.25032,10.84874 -5.333351,17.333405c-2.947144,6.198853 -5.808815,11.195313 -7.333366,
    17.333405c-0.977509,3.935608 -2.000008,10.000031 -2.666679,12.666718c-0.666664,2.666672 -0.666664,4.666672 -0.666664,6.000015c0,1.333344 -0.255119,2.050766 0,
    2.666672c0.360794,0.871048 2.094818,1.092697 6.000023,0c3.457329,-0.967377 6.221939,-2.35231 12.000046,-6.666687c4.172127,-3.115234 7.491249,-7.180649 12.000053,
    -12.000046c4.841583,-5.17511 6.959808,-9.624207 10.666702,-14.000061c4.265869,-5.035706 7.197144,-8.060791 9.333374,-12.666718c1.25444,-2.704681 2.743912,-5.309235 3.333344,
    -7.333359c0.768509,-2.63913 1.333344,-4.000015 1.333344,-5.333359c0,-1.333328 -0.195267,-2.195267 -0.666672,-2.666672c-0.94281,-0.94281 -3.361969,0.617172 -8.000031,
    3.333344c-3.354431,1.964447 -6.503922,6.771973 -10.000046,12.000046c-3.187927,4.767197 -6.316986,10.574677 -7.333359,14.666733c-0.977509,3.935608 -2.000008,
    8.666702 -2.000008,11.333374c0,2.000015 -0.306335,3.369019 0,4.666687c0.342491,1.450836 1.252373,2.995651 3.333351,3.333344c3.290298,0.533936 6.226105,
    -0.81131 11.333374,-3.333344c5.639252,-2.784729 8.36647,-6.930862 11.333374,-10.000046c4.271896,-4.419159 7.819778,-8.819275 10.666718,-12.000046c3.143906,
    -3.512573 6.666687,-7.333359 9.333359,-11.333374c1.333344,-2.000015 2.461731,-3.457352 3.333359,-4.666687c0.55127,-0.764847 0.462296,-2.360794 1.333328,-2c1.231827,
    0.510254 -0.455795,5.395111 -1.333328,8.000031c-1.62088,4.811523 -5.333359,10.666702 -7.333374,14.666718c-2,4.000015 -3.485352,9.518097 -4.666672,12.000046c-1.432571,
    3.009811 -3.945099,4.924606 -4.666687,6.666702c-0.255127,0.615921 -0.982849,1.900436 -1.333344,1.333328c-0.783707,-1.268082 2.195679,-4.587601 4.000015,-9.333359c1.498428,
    -3.941147 2.176727,-8.908676 4.666687,-13.333389c2.812515,-4.997894 6.666702,-9.333374 8.666702,-13.333389c1.333328,-2.666672 2.666672,-4.666687 6.000015,-8.000031c2.000015,
    -2.000015 4.666687,-4.000015 6.000031,-5.333359c1.333344,-1.333328 2,-1.333328 2.666672,-1.333328c1.333344,0 2.356628,0.207169 3.333344,1.333328c1.381287,1.592651 1.905701,
    4.601974 2.000015,8.000031c0.130798,4.71225 -0.939194,8.019501 -1.333344,12.000046c-0.669922,6.76564 -2.558029,10.681427 -3.333344,16.000076c-0.584946,4.012787 -1.333344,
    7.333359 -2,10.666702c-0.666672,3.333344 -1.843582,5.434845 -1.333344,6.666687c0.360794,0.871048 0.462296,1.639221 1.333344,2.000015c0.615906,0.255112 4.705734,-1.279327 9.333359,
    -4.666687c2.689758,-1.968872 6.498032,-4.916779 12.000046,-12.000046c2.949066,-3.796616 5.076981,-7.512436 9.333374,-13.333389c2.519653,-3.445831 5.053162,-7.437943 6.666702,
    -11.333374c1.140945,-2.754486 1.674179,-4.686661 2,-7.333359c0.335846,-2.728165 0.871643,-4.124023 0,-5.333359c-0.55127,-0.764847 -4.079712,-0.818695 -8.000031,1.333344c-3.407639,
    1.870605 -9.613449,6.467697 -13.333389,12.000046c-2.169067,3.225876 -5.838348,9.109467 -8.000031,14.666718c-1.759476,4.52327 -3.200623,10.043091 -2.666672,13.333389c0.337692,
    2.080963 1.809418,5.474472 3.333344,7.333359c1.195465,1.458237 4.189133,2.8909 9.333374,1.333344c4.280258,-1.295959 10.463333,-4.76532 14.666718,-8.666702c3.816345,
    -3.542145 7.061493,-6.914215 11.333389,-11.333374c2.966904,-3.069183 4.666672,-4.666687 5.333344,-6.000031c0.666672,-1.333344 1.837631,-1.285233 1.333344,1.333344c-0.678925,
    3.525345 -4.565338,8.326126 -8.000031,14.666718c-2.418304,4.464279 -3.469818,12.482254 -8.000031,22.000092c-3.735703,
    7.848618 -8.376114,13.516586 -12.666718,20.000076c-5.004211,7.561798 -8.302887,12.968292 -13.333389,18.666748c-4.991653,
    5.654449 -9.01384,9.072845 -14.000061,12.666718c-3.153549,2.272949 -5.305328,4.087219 -9.333359,5.333344c-4.636627,
    1.434418 -7.19838,2.406219 -10.666718,3.333344c-4.554169,1.217377 -7.333359,0.666687 -9.333374,0.666687c-2,0 -4.617203,
    -0.998383 -8.000031,-1.333344c-1.990265,-0.197083 -4.279251,-0.279266 -5.333344,-1.333344c-1.054108,-1.054108 -1.94603,
    -4.738037 -1.333344,-7.333374c1.027481,-4.352509 5.914429,-10.737 8.666702,-14.000031c5.175873,-6.136414 13.872757,
    -11.8479 23.33342,-18.666748c9.972412,-7.187714 22.102036,-16.496384 33.333466,-23.333435c18.169128,-11.060318 34.000137,
    -21.33342 50.666885,-30.000122l21.333405,-9.333359l19.333405,-10.666718l20.666748,-8.000031"/>
  <path class="path" id="bo"
    d="m305.666718,110.000435c0,2.000008 -1.865326,6.06398 -6.666687,16.000069c-3.891571,8.053329 -8.654846,15.322052 -14.666718,28.666779c-3.463745,
    7.688568 -5.703674,15.8228 -10.666718,26.666763c-3.60675,7.880554 -5.865143,14.063599 -10.000031,22.666763c-3.22879,6.717941 -5.712097,11.165451 -7.333374,15.333389c-1.759491,
    4.52327 -1.05719,7.723892 -2,8.666702c-0.471405,0.471405 -1.282593,1.078217 -0.666672,1.333344c0.871048,0.360794 1.305679,-2.699173 6.000015,-6.666687c3.976776,
    -3.361053 9.333374,-8.000061 16.000061,-12.000061c3.333374,-2.000015 9.184265,-4.939301 12.666718,-6.666687c3.216217,-1.595337 7.376404,
    -3.200623 10.666718,-2.666672c2.080963,0.337692 3.278442,0.924576 4.000031,2.666672c0.510254,1.231842 0.703796,6.26152 -1.333344,10.666702c-2.017853,
    4.363464 -4.850372,7.791245 -8.666718,11.333389c-4.203369,3.901382 -7.92572,6.12941 -11.333374,8.000031c-5.227081,2.869385 -8.651581,4.730316 -11.333374,5.333359c-3.316528,
    0.745773 -5.938568,1.664154 -8.666687,2c-1.323364,0.162918 -2.050781,0.255127 -2.666687,0c-0.871033,-0.360794 -1.333344,-0.666672 -1.333344,-1.333344c0,-0.666656 0.468475,
    -1.694244 2.666687,-2.666672c2.513733,-1.112015 5.968903,-0.333984 11.333374,0c3.992279,0.24855 8.637024,0.885986 15.333405,0.666672c4.053009,
    -0.132751 10.618469,-1.487823 14.666718,-2.666672c5.278259,-1.537018 11.917572,-3.448318 14.666718,-5.333359c5.187073,-3.556671 9.812714,-6.873505 12.000061,-8.666702c1.858887,
    -1.523926 5.008667,-4.396027 6,-6.000031c1.108337,-1.793335 1.58847,-3.384094 1.333344,-4.000015c-0.360779,-0.871048 -0.46228,-1.639206 -1.333344,
    -2c-0.615906,-0.255112 -1.486206,-0.445343 -4,0.666672c-4.396454,1.944855 -7.52182,5.219818 -8.666718,7.333359c-2.418304,4.464279 -3.664154,9.271896 -4,12.000046c-0.407257,
    3.308365 -0.190582,7.474487 1.333344,9.333374c1.195465,1.458221 4.019989,2.325821 6.666687,2c2.728149,
    -0.335846 7.769684,-3.461258 12.000061,-7.333359c4.533875,-4.149918 6.955231,-7.767426 10.666687,-12.666718c2.902924,-3.832016 5.333374,
    -8.000031 6.000031,-10.000046c0.666656,-2 1.333344,-3.333344 1.333344,-4.000015c0,-1.333328 0,-1.999985 -0.666687,-2.666672c-1.333313,-1.333328 -5.333344,
    -1.333344 -9.333344,0l-7.333374,2.666672l-4.000031,1.333344"/>
  <path class="path" id="lou"
    d="m464.334015,116.000458c-1.333344,1.333344 -2.519165,5.714439 -5.333344,10.66671c-4.218048,7.422752 -10.618042,
    14.036781 -16.666748,22.000084c-6.613739,8.707184 -11.420868,18.431931 -20.000061,29.33345c-4.38269,5.569077 -9.771057,13.8479 -14.666718,21.33342c-5.699951,
    8.715286 -10.381897,14.841446 -13.333405,19.33342c-3.660889,5.571579 -6.71463,9.968872 -8.000031,12.000046c-2.078735,3.284821 -2.990845,
    5.215836 -3.333344,6.666687c-0.306335,1.297668 -0.410278,2.141205 0,2.666672c1.69162,2.16658 7.333374,1.333344 12.000061,1.333344c7.333344,0 12.297028,-0.32338 20.666748,
    -3.333344c4.208282,-1.513412 11.92572,-4.129425 15.333374,-6.000031c5.227112,-2.8694 10.666718,-6.666672 14.666748,-9.333359c6,-4 8.862457,-6.48436 11.333374,
    -9.333374c2.184021,-2.518188 2.476044,-4.807816 4,-6.666702c0.597748,-0.729111 1.744873,-1.949234 2,-1.333328c0.360809,0.871033 -1.333313,2.666672 -2.666656,6.666687c-0.666687,
    2.000015 -1.333344,4.000015 -1.333344,6.666702c0,4.000015 -0.140106,7.385651 0.666656,9.333359c0.570496,1.377258 2.431702,3.315033 5.333374,4.000015c2.595337,0.612671 5.076141,
    0.863556 10.000031,-2c4.501038,-2.617645 7.04425,-5.669662 9.333374,-8.666702c3.262512,-4.271439 4.914246,-7.831207 6.666687,-10.666718c1.567444,-2.536163 2.328979,
    -4.585709 2.666687,-6.666687c0.213593,-1.316132 -0.4617,-2.79068 -1.333344,-4.000015c-1.102539,-1.529709 -2.666687,-2.000015 -4.666687,-2.666672c-2,-0.666672 -6.666687,
    -0.666672 -10.000031,-0.666672c-2.000031,0 -3.333344,0.666672 -4.666687,0.666672c-0.666687,0 0.016815,0.587555 3.333344,1.333328c2.681793,0.603043 5.346985,0.996597 9.333374,
    0.666672c4.041351,-0.334473 7.333344,-0.666672 10.666687,-0.666672c3.333374,0 6.585754,-0.328979 8.666718,-0.666672c1.316132,-0.213577 2.717438,-0.255127 3.333344,0c0.871033,
    0.360794 1.180176,0.684509 1.333344,1.333344c0.342499,1.450836 1.466187,3.336655 1.333344,6.000031c-0.333771,6.69162 -1.697968,9.896454 -2.666687,14.000046c-1.083069,
    4.587952 -1.333344,8.000031 -1.333344,10.000046c0,1.333344 0.972565,2.462296 1.333344,3.333344c0.255127,0.615921 1.359131,1.703217 4.000031,1.333344c4.806519,-0.673172 7.63031,
    -2.965347 12.666687,-7.333359c5.697998,-4.941879 7.645447,-7.554733 10.666748,-12.000061c2.399536,-3.530502 5.846313,-6.260681 7.333313,-8.666687c1.108337,-1.79335 1.256897,
    -3.913589 2.000061,-3.333359c3.064026,2.392365 -5.179138,7.741943 -6.666748,11.333389c-1.05188,2.539505 -1.665039,5.950546 -2,9.333359c-0.197083,1.99028 -0.38739,
    3.612595 0.666687,4.666687c2.108215,2.108185 6.905945,3.462769 15.333374,1.333344c6.365906,-1.608521 16.000061,-6.666687 22.666809,-9.333374l4,-1.333328"/>

</svg>
